<svg class="canvas" viewBox="0 0 1920 1080" preserveAspectRatio="xMaxYMid slice" xmlns="http://www.w3.org/2000/svg" version="1.1" xmlns:xlink="http://www.w3.org/1999/xlink" xmlns:svgjs="http://svgjs.dev/svgjs"><rect width="1920" height="1080" fill="hsl(240, 65%, 15%)"></rect><defs><linearGradient x1="0.5" y1="0" x2="0" y2="1" id="SvgjsLinearGradient1000"><stop stop-color="#284f8a" offset="0"></stop><stop stop-color="#0e0614" offset="0.1"></stop></linearGradient><linearGradient x1="0.5" y1="0" x2="0" y2="1" id="SvgjsLinearGradient1001"><stop stop-color="#283c8a" offset="0"></stop><stop stop-color="#110614" offset="0.22857142857142856"></stop></linearGradient><linearGradient x1="0.5" y1="0" x2="0" y2="1" id="SvgjsLinearGradient1002"><stop stop-color="#28288a" offset="0"></stop><stop stop-color="#140614" offset="0.3571428571428571"></stop></linearGradient><linearGradient x1="0.5" y1="0" x2="0" y2="1" id="SvgjsLinearGradient1003"><stop stop-color="#c0caf2" offset="0"></stop><stop stop-color="#b942d7" offset="0.48571428571428565"></stop></linearGradient><linearGradient x1="0.5" y1="0" x2="0" y2="1" id="SvgjsLinearGradient1004"><stop stop-color="#c0caf2" offset="0"></stop><stop stop-color="#b942d7" offset="0.6142857142857142"></stop></linearGradient><linearGradient x1="0.5" y1="0" x2="0" y2="1" id="SvgjsLinearGradient1005"><stop stop-color="#c0c0f2" offset="0"></stop><stop stop-color="#d742d7" offset="0.7428571428571429"></stop></linearGradient><linearGradient x1="0.5" y1="0" x2="0" y2="1" id="SvgjsLinearGradient1006"><stop stop-color="#c0def2" offset="0"></stop><stop stop-color="#7d42d7" offset="0.8714285714285713"></stop></linearGradient></defs><path d="M0,-516.3997952906457C73.52478907339463,-489.16509838642486,312.31012587509827,-391.4984531119282,441.1487344403678,-352.99161386532074C569.9873430056373,-314.4847746187133,659.87746079869,-317.39785812527435,773.0316513916172,-285.3587598110009C886.1858419845444,-253.31966149672738,988.6134415702157,-199.53773931088054,1120.0738779979313,-160.7570239796798C1251.534314425647,-121.97630864847903,1428.4732496242323,-83.40067260530205,1561.7942699579105,-52.67446782379638C1695.1152902915887,-21.9482630422907,1860.299044992985,10.88775928716251,1920,23.600204709354287L 1920 1080 L 0 1080 Z" fill="url(&quot;#SvgjsLinearGradient1000&quot;)"></path><path d="M0,-386.91002111627137C77.39662943507174,-364.04274582789793,304.21272464655294,-291.94019201231697,464.3797766104305,-249.70636938603087C624.546828574308,-207.4725467597448,795.0201852051655,-180.98842605718536,961.0023117832652,-133.50708535855492C1126.984438361365,-86.02574465992447,1300.4395880429065,-14.965454948914527,1460.272536079029,35.18167480575178C1620.1054841151513,85.32880456041809,1843.3787560131714,145.3433567754944,1920,167.37569316944294L 1920 1080 L 0 1080 Z" fill="url(&quot;#SvgjsLinearGradient1001&quot;)"></path><path d="M0,-266.9185194664767C46.48157157930094,-257.0109551888629,194.68526170755058,-239.49845520068453,278.8894294758056,-207.47313380079402C363.0935972440607,-175.4478124009035,416.6839062581359,-111.97027048905883,505.2250066095303,-74.76659106713369C593.7661069609247,-37.56291164520854,717.2716712565832,-15.369483615572111,810.1360315841721,15.748942730756895C903.000391911761,46.8673690770859,973.7362366454836,93.71236250960813,1062.4111685750636,111.94396701084034C1151.0861005046436,130.17557151207257,1247.3305602283963,105.82849963028934,1342.185623161652,125.13856973815018C1437.0406860949079,144.44863984601102,1535.2391500348742,198.38533109687177,1631.5415461745988,227.8043876580054C1727.8439423143234,257.223444219139,1871.9235910290997,289.3448221971275,1920,301.6529091049519L 1920 1080 L 0 1080 Z" fill="url(&quot;#SvgjsLinearGradient1002&quot;)"></path><path d="M0,-166.27272126029868C60.94305309099328,-142.52450047118694,237.80278915482728,-63.35751433324368,365.6583185459597,-23.783396525628234C493.51384793709207,15.79072128198721,635.9885429275529,30.826348344837164,767.1331763467945,71.171985585394C898.2778097660361,111.51762282595084,1023.8477404801162,175.97712666129698,1152.5261190614092,218.29042691771275C1281.204497642702,260.6037271741285,1411.2911343447872,292.00278801070004,1539.2034478345524,325.05178712388863C1667.1157613243176,358.1007862370772,1856.5339079724254,401.3289825180183,1920,416.5844215968442L 1920 1080 L 0 1080 Z" fill="url(&quot;#SvgjsLinearGradient1003&quot;)"></path><path d="M0,-40.337159239129775C40.34893855873573,-33.72056680055098,163.4234535766027,-26.153457856486973,242.09363135241438,-0.6376046076570461C320.76380912822606,24.87824864117288,393.26355314134156,84.97729930083199,472.02106665487,112.75796025384977C550.7785801683985,140.53862120686756,637.0405749033011,147.6318656029745,714.6387124335853,166.04636111044965C792.2368499638694,184.4608566179248,862.5872484020133,193.79722851121448,937.6098918365747,223.24493329870074C1012.632535271136,252.692638086187,1082.0590371317119,308.1278729675039,1164.774573040953,342.73258983536726C1247.4901089501943,377.33730670323064,1350.6813521604881,410.76466900885185,1433.9031072920218,430.8732345058808C1517.1248624235554,450.9818000029098,1583.0889550454915,442.39523891789986,1664.1051038301546,463.383982817541C1745.1212526148176,484.3727267171821,1877.3508506383591,541.2354120560298,1920,556.8056979037275L 1920 1080 L 0 1080 Z" fill="url(&quot;#SvgjsLinearGradient1004&quot;)"></path><path d="M0,61.41625478067708C69.10173675215277,83.63984908338158,289.98107444598617,148.9252396046986,414.6104205129166,194.75782059690405C539.2397665798471,240.59040158910952,633.1917374832665,297.07492853108823,747.7760764015828,336.4117407339098C862.3604153198992,375.7485529367314,972.3803904072222,397.071998630381,1102.1164540228149,430.77869381383357C1231.8525176384076,464.4853889972861,1389.8785337656077,498.3075564353892,1526.1924580951386,538.651911834625C1662.5063824246695,578.9962672338609,1854.365409682523,650.4793404801446,1920,672.8448262092485L 1920 1080 L 0 1080 Z" fill="url(&quot;#SvgjsLinearGradient1005&quot;)"></path><path d="M0,232.15260476323127C54.48229991724107,250.34785266239686,215.7002749256078,299.04074139170376,326.8937995034464,341.32409215822474C438.08732408128503,383.6074429247457,564.8333143969724,457.35111325589344,667.1611474670317,485.85270936235713C769.488980537091,514.3543054688208,844.967073434632,482.9940899101348,940.8607979238021,512.3336687970068C1036.7545224129722,541.6732476838788,1137.154308714033,621.5324543430957,1242.5234944020524,661.890182683589C1347.8926800900717,702.2479110240824,1460.1631611189275,721.8172542076459,1573.0759120519187,754.4800388399672C1685.98866298491,787.1428234722885,1862.1793186753198,840.6357485379253,1920,857.866890477517L 1920 1080 L 0 1080 Z" fill="url(&quot;#SvgjsLinearGradient1006&quot;)"></path></svg>